<svg xmlns="http://www.w3.org/2000/svg" x="0px" y="0px"
width="30" height="30"
viewBox="0,0,255.99431,255.99431"
style="fill:#000000;">
<g fill="#ffdb6e" fill-rule="nonzero" stroke="none" stroke-width="1" stroke-linecap="butt" stroke-linejoin="miter" stroke-miterlimit="10" stroke-dasharray="" stroke-dashoffset="0" font-family="none" font-weight="none" font-size="none" text-anchor="none" style="mix-blend-mode: normal"><g transform="scale(8.53333,8.53333)"><path d="M15,3c-7.168,0 -13,4.91884 -13,10.96484c0,3.497 1.99797,6.78498 5.29297,8.83398c-0.101,0.197 -0.2257,0.38998 -0.3457,0.58398c-0.58,0.936 -1.7207,2.20508 -1.7207,2.20508c-0.538,0.777 0.09228,1.6173 1.11328,1.5293c1.061,-0.091 1.92689,-0.31859 2.83789,-0.68359c1.231,-0.494 2.45805,-0.99222 3.37305,-1.69922c0.05687,0.00916 0.11486,0.01301 0.17188,0.02148c1.5181,1.22338 3.5458,1.97852 5.77734,1.97852c0.527,0 1.05417,-0.04291 1.57617,-0.12891c0.479,0.278 1.09191,0.62628 1.62891,0.86328c0.77,0.339 1.45778,0.66947 2.67578,0.85547c0.928,0.142 1.66306,-0.68547 1.16406,-1.48047c-0.574,-0.544 -1.01306,-1.21873 -1.28906,-2.05273c1.741,-1.379 2.74414,-3.32583 2.74414,-5.42383c0,-0.35092 -0.03873,-0.69327 -0.09375,-1.03125c0.69822,-1.33955 1.09375,-2.8155 1.09375,-4.37109c0,-6.046 -5.832,-10.96484 -13,-10.96484zM18.5,14c3.584,0 6.5,2.40819 6.5,5.36719c0,1.816 -1.10789,3.49614 -2.96289,4.49414c-0.224,0.121 -0.32056,0.38619 -0.22656,0.61719c0.14,0.345 0.29956,0.66141 0.47656,0.94141c-0.6,-0.204 -1.16995,-0.48845 -1.62695,-0.81445c-0.083,-0.059 -0.1783,-0.08984 -0.2793,-0.08984c-0.037,0 -0.07533,0.00272 -0.11133,0.01172c-0.582,0.136 -1.17753,0.20508 -1.76953,0.20508c-3.584,0 -6.5,-2.40819 -6.5,-5.36719c0,-2.958 2.916,-5.36523 6.5,-5.36523zM15.41211,18.3125c-0.39158,-0.00493 -0.75553,0.20115 -0.95276,0.53947c-0.19722,0.33832 -0.19722,0.75657 0,1.09488c0.19722,0.33832 0.56118,0.5444 0.95276,0.53947c0.39158,0.00493 0.75553,-0.20115 0.95276,-0.53947c0.19722,-0.33832 0.19722,-0.75657 0,-1.09488c-0.19722,-0.33832 -0.56118,-0.5444 -0.95276,-0.53947zM18.53711,18.3125c-0.39158,-0.00493 -0.75553,0.20115 -0.95276,0.53947c-0.19722,0.33832 -0.19722,0.75657 0,1.09488c0.19722,0.33832 0.56118,0.5444 0.95276,0.53947c0.39158,0.00493 0.75553,-0.20115 0.95276,-0.53947c0.19722,-0.33832 0.19722,-0.75657 0,-1.09488c-0.19722,-0.33832 -0.56118,-0.5444 -0.95276,-0.53947zM21.58789,18.3125c-0.39158,-0.00493 -0.75553,0.20115 -0.95276,0.53947c-0.19722,0.33832 -0.19722,0.75657 0,1.09488c0.19722,0.33832 0.56118,0.5444 0.95276,0.53947c0.39158,0.00493 0.75553,-0.20115 0.95276,-0.53947c0.19722,-0.33832 0.19722,-0.75657 0,-1.09488c-0.19722,-0.33832 -0.56118,-0.5444 -0.95276,-0.53947z"></path></g></g>
</svg>