<?xml version="1.0" standalone="yes"?>
<svg xmlns="http://www.w3.org/2000/svg" width="100" height="100">
<path style="fill:#010101; stroke:none;" d="M0 0L0 50L26 48C26.0026 44.5809 25.3875 40.0723 28.3179 37.6034C32.5081 34.0731 55.4919 34.0731 59.6821 37.6034C62.6125 40.0723 61.9974 44.5809 62 48C68.0703 48 80.7841 45.5954 85.6968 49.6034C89.4231 52.6435 88.9931 58.7041 89 63C89.0194 75.0782 90.9979 88.7527 86 100L100 100L100 94L90 96L90 92C98.3897 90.662 96 80.5557 96 74L96 25C96 20.0659 97.8065 10.5653 94.9722 6.3179C93.2447 3.72906 89.7252 4.01953 87 4.00077C80.9542 3.95916 60.6732 0.854874 57.0278 6.3179C53.1573 12.1182 56 27.1277 56 34L52 34C52 23.3288 49.7851 9.94714 54 0L0 0z"/>
<path style="fill:#ffd77e; stroke:none;" d="M54 0L55 1L54 0z"/>
<path style="fill:#ffdb6f; stroke:none;" d="M52 34L56 34C56 26.9361 53.3754 13.3167 57.0278 7.14815C60.76 0.844803 79.5589 3.95645 86 4.00077C88.9285 4.02092 92.316 3.84847 94.3966 6.3179C97.8225 10.3842 96 20.0057 96 25L96 74C96 80.7453 97.9846 89.6837 90 92L90 96C102.194 95.8896 100 86.6643 100 77L100 24C100 18.3829 102.118 7.22347 98.821 2.43364C96.7463 -0.580772 92.172 0.00530243 89 0L63 0C59.828 0.00530243 55.2537 -0.580772 53.179 2.43364C48.7344 8.89132 52 26.2775 52 34z"/>
<path style="fill:#ffd77e; stroke:none;" d="M97 0L98 1L97 0z"/>
<path style="fill:#010101; stroke:none;" d="M98 0L100 2L100 0L98 0z"/>
<path style="fill:#ffd77e; stroke:none;" d="M52 2L53 3L52 2M99 2L100 3L99 2z"/>
<path style="fill:#ffdb6f; stroke:none;" d="M73.6034 17.0324C69.7975 19.9855 74.532 25.9662 78.3966 22.9676C82.2024 20.0145 77.468 14.0338 73.6034 17.0324z"/>
<path style="fill:#ffd77e; stroke:none;" d="M28 36L29 37L28 36z"/>
<path style="fill:#ffdb6f; stroke:none;" d="M26 48C20.2534 48 6.05711 45.4275 1.74228 49.7423C-0.880135 52.3647 0.000215446 57.6494 0 61L0 88C0.0013025 91.3761 -0.797359 96.5972 2.43364 98.821C7.22348 102.118 18.3829 100 24 100C42.6361 100 61.3733 100.572 79.9992 99.9846C82.8261 99.8954 85.9048 99.6679 87.2577 96.7716C91.2603 88.2032 88 71.4226 88 62C88 58.5714 88.8786 53.4232 86.821 50.4336C83.2802 45.2891 67.595 48 62 48C61.9979 44.8546 62.7082 40.1928 60.2577 37.7423C56.5357 34.0202 31.4643 34.0202 27.7423 37.7423C25.2918 40.1928 26.0021 44.8547 26 48z"/>
<path style="fill:#ffd77e; stroke:none;" d="M59 36L60 37L59 36M26 38L27 39L26 38z"/>
<path style="fill:#ffcd67; stroke:none;" d="M61 38L62 39L61 38z"/>
<path style="fill:#010101; stroke:none;" d="M30 48L58 48C57.6038 35.8343 30.3962 35.8343 30 48z"/>
<path style="fill:#ffd77e; stroke:none;" d="M2 48L3 49L2 48M85 48L86 49L85 48M0 50L1 51L0 50M87 50L88 51L87 50z"/>
<path style="fill:#010101; stroke:none;" d="M4 64L14 64C16.9994 58.5606 25.0006 58.5606 28 64L60 64C62.9994 58.5606 71.0006 58.5606 74 64L84 64L81.6821 53.0278L64 52L23 52L6.3179 53.0278L4 64z"/>
<path style="fill:#ffff01; stroke:none;" d="M88 54L88 94L89 94C89 82.566 92.411 64.512 88 54z"/>
<path style="fill:#010101; stroke:none;" d="M18 64L18 72L24 72L24 64L18 64M64 64L64 72L70 72L70 64L64 64z"/>
<path style="fill:#ffd77e; stroke:none;" d="M23 66L24 67L23 66M69 66L70 67L69 66z"/>
<path style="fill:#010101; stroke:none;" d="M4 68C4 73.9712 1.1854 89.9786 5.60339 94.3966C8.74403 97.5372 16.9381 96 21 96L65 96C69.4165 96 79.0075 97.7857 82.3966 94.3966C86.8146 89.9786 84 73.9712 84 68L74 68C73.6541 78.6213 60.3459 78.6213 60 68L28 68C27.6541 78.6213 14.3459 78.6213 14 68L4 68z"/>
<path style="fill:#ffcd67; stroke:none;" d="M99 93L100 94L99 93M97 95L98 96L97 95z"/>
<path style="fill:#ffd77e; stroke:none;" d="M0 97L1 98L0 97z"/>
<path style="fill:#ffcd67; stroke:none;" d="M87 97L88 98L87 97z"/>
<path style="fill:#010101; stroke:none;" d="M0 98L0 100L2 100L0 98z"/>
<path style="fill:#ffd77e; stroke:none;" d="M2 99L3 100L2 99z"/>
<path style="fill:#ffcd67; stroke:none;" d="M85 99L86 100L85 99z"/>
</svg>